<svg width="1920" height="295" viewBox="0 0 1920 295" fill="none" xmlns="http://www.w3.org/2000/svg">
<path d="M-16.6808 113.667C-14.4675 113.793 -12.249 114.039 -10.0318 114.047C4.20733 114.074 585.016 113.729 599.245 113.299C612.839 112.894 623.451 118.372 632.055 128.333C634.973 131.717 637.165 135.725 639.928 139.251C642.836 142.954 645.634 146.904 649.193 149.899C655.196 154.966 662.512 155.215 668.416 150.078C672.732 146.317 676.383 141.502 679.361 136.567C683.579 129.565 687.86 122.729 694.222 117.474C709.067 105.198 726.485 106.299 739.82 120.148C744.397 124.9 749.011 129.721 754.137 133.831C762.498 140.537 772.328 143.673 783.092 143.283C790.201 143.028 797.305 142.437 804.396 141.905C805.252 141.84 806.56 141.375 806.797 140.759C807.822 138.132 809.585 136.804 812.316 136.286C812.992 136.159 813.711 134.961 813.971 134.128C819.528 116.487 836.85 100.842 861.523 101.78C871.748 102.164 881.999 101.816 892.237 101.796C893.489 101.793 894.798 101.565 895.971 101.865C900.268 102.947 904.179 103.809 908.88 102.09C913.05 100.566 916.819 104.971 916.854 110.16C916.939 121.522 916.903 132.891 916.924 144.25C916.945 157.861 917.01 171.469 916.977 185.081C916.957 193.168 911.851 196.212 904.549 192.659C903.83 192.305 902.76 192.446 901.907 192.61C899.262 193.13 896.641 194.231 894.002 194.28C882.394 194.492 870.779 194.453 859.169 194.428C838.076 194.37 821.443 182.557 814.206 162.744C813.763 161.541 812.231 160.688 811.1 159.802C810.141 159.05 808.461 158.697 808.109 157.779C806.902 154.642 804.647 154.942 802.083 155.182C796.863 155.669 791.619 156.005 786.385 156.314C767.223 157.432 751.196 150.595 737.846 137.053C734.868 134.033 732.039 130.858 729.045 127.853C722.522 121.294 714.062 120.218 706.112 124.974C699.911 128.677 695.916 134.346 692.225 140.385C688.855 145.895 685.577 151.658 681.203 156.312C668.119 170.266 649.834 170.142 636.594 156.353C633.51 153.139 631.177 149.215 628.467 145.635C625.611 141.855 623.011 137.845 619.792 134.405C614.613 128.871 608.164 126.255 600.353 126.378C583.122 126.635 -0.680772 127.133 -17.9189 127.139C-19.2782 127.142 -20.6427 126.97 -22 126.887C-20.2269 122.481 -18.4538 118.074 -16.6808 113.667Z" fill="black"/>
<path d="M1924.79 148.251C1923.57 148.107 1922.36 147.834 1921.14 147.839C1905.78 147.835 1318.81 125.587 1303.46 125.381C1295.53 125.275 1288.96 127.999 1283.73 133.665C1280.54 137.124 1278.08 141.254 1275.1 144.919C1271.12 149.829 1267.53 155.303 1262.73 159.269C1251.74 168.364 1237.78 167.974 1226.5 159.208C1220.35 154.44 1215.98 148.262 1212.38 141.457C1208.79 134.642 1204.46 128.447 1197.66 124.356C1189.8 119.606 1181.19 120.597 1174.74 127.139C1171.84 130.071 1169.1 133.152 1166.23 136.1C1152.98 149.709 1137.07 156.835 1117.87 155.838C1112.01 155.538 1106.16 155.125 1100.31 154.645C1098.39 154.487 1096.98 154.642 1096.12 156.713C1095.74 157.646 1094.6 158.869 1093.76 158.897C1090.04 159.051 1089.73 161.944 1088.68 164.421C1080.88 182.894 1066.94 193.1 1046.92 194.013C1033.47 194.636 1019.96 194.244 1006.47 194.165C999.453 194.121 995.019 189.631 994.989 182.58C994.896 159.476 994.867 136.375 994.901 113.278C994.918 105.977 999.296 101.713 1006.68 101.665C1019.79 101.573 1032.9 101.481 1046.01 101.613C1065.63 101.813 1082.57 114.027 1089.17 132.551C1089.86 134.478 1090.3 136.25 1092.94 136.439C1093.99 136.516 1095.57 137.585 1095.83 138.506C1096.75 141.841 1099.3 141.531 1101.76 141.699C1107.36 142.069 1112.97 142.524 1118.58 142.809C1133.34 143.565 1145.68 138.16 1156 127.823C1158.82 124.992 1161.51 122.044 1164.25 119.138C1176.46 106.22 1193.08 104.726 1207.51 115.286C1214.62 120.487 1219.43 127.54 1223.9 135.02C1226.8 139.885 1230.18 144.726 1234.28 148.565C1240.55 154.427 1248.56 154.395 1255.01 148.711C1258.68 145.478 1261.72 141.345 1264.41 137.21C1268.88 130.345 1273.8 123.978 1280.55 119.202C1286.73 114.823 1293.56 112.379 1301.2 112.368C1319.56 112.348 1909.51 134.776 1927.87 134.778C1928.61 134.772 1929.35 134.94 1930.08 135.02L1924.76 148.24L1924.79 148.251Z" fill="black"/>
<path d="M991.093 157.945C991.104 163.329 991.117 168.173 991.129 173.18C990.599 173.344 990.149 173.605 989.696 173.606C976.844 173.641 963.994 173.752 951.146 173.617C944.697 173.544 940.869 167.412 944.157 162.214C945.374 160.289 948.191 158.296 950.33 158.23C963.768 157.838 977.227 157.982 991.084 157.942L991.093 157.945Z" fill="black"/>
<path d="M991.036 119.376C991.049 124.836 991.052 129.677 991.059 134.347C990.672 134.666 990.48 134.955 990.297 134.956C977.094 135.034 963.887 135.174 950.674 135.086C946.257 135.054 943.023 131.598 942.946 127.503C942.871 123.43 945.779 119.685 949.896 119.606C963.449 119.357 977.014 119.426 991.036 119.376Z" fill="black"/>
<path d="M1044.07 39.2952C1047.19 42.4472 1049.97 45.268 1053.03 48.3661C1046.43 53.879 1040.5 58.8342 1034.58 63.7803C1026.62 70.4305 1018.68 77.0976 1010.64 83.6641C1009.92 84.2569 1008.59 84.1093 1007.54 84.3022C1007.7 83.3517 1007.52 82.1276 1008.06 81.4918C1019.76 67.6813 1031.54 53.9359 1044.07 39.2952Z" fill="#7CB24A"/>
<path d="M836.001 46.9066C839.118 43.7951 841.866 41.0636 844.78 38.1615C845.898 39.2148 846.573 39.7343 847.095 40.3649C858.065 53.4992 869.043 66.615 879.92 79.8196C880.661 80.7106 880.611 82.2536 880.919 83.4984C879.772 83.134 878.366 83.0643 877.523 82.3477C863.905 70.8105 850.362 59.1955 835.992 46.9029L836.001 46.9066Z" fill="#7CB24A"/>
<path d="M1005.79 212.119C1007.54 209.092 1008.83 210.615 1010.17 211.767C1022.38 222.23 1034.6 232.678 1046.81 243.141C1048.21 244.341 1049.6 245.57 1051.67 247.372C1048.64 250.39 1045.84 253.185 1042.7 256.33C1030.06 241.187 1017.94 226.687 1005.79 212.128L1005.79 212.119Z" fill="#7CB24A"/>
<path d="M949.29 294.254C944.891 294.23 940.999 294.205 936.891 294.18C936.882 292.516 936.789 291.541 936.876 290.574C938.369 273.658 939.852 256.739 941.457 239.836C941.567 238.706 942.713 237.679 943.374 236.598C943.937 237.665 944.9 238.699 944.985 239.801C946.449 257.593 947.811 275.399 949.272 294.246L949.29 294.254Z" fill="#7CB24A"/>
<path d="M939.111 0.00554794C942.834 0.0484098 946.808 0.0843544 951.187 0.132265C950.197 11.1383 949.289 21.2717 948.377 31.4144C947.662 39.3515 946.989 47.2942 946.18 55.2254C946.093 56.085 945.181 56.8501 944.65 57.6605C944.018 56.9536 942.887 56.2828 942.829 55.5157C941.362 37.517 940.009 19.4999 938.644 1.4883C938.626 1.26543 938.786 1.02807 939.124 5.18905e-06L939.111 0.00554794Z" fill="#7CB24A"/>
<path d="M834.79 245.801C849.366 233.632 863.243 222.023 877.188 210.484C877.869 209.918 879.081 209.985 880.04 209.746C879.811 210.904 879.968 212.39 879.309 213.17C869.819 224.432 860.214 235.604 850.647 246.791C849.184 248.499 847.611 250.13 846.324 251.962C844.743 254.204 843.064 254.52 841.153 252.597C839.072 250.51 837.119 248.29 834.803 245.795L834.79 245.801Z" fill="#7CB24A"/>
<path d="M889.895 25.5072C892.616 24.1553 894.988 22.9754 897.778 21.5865C901.106 32.3358 904.05 41.842 907.38 52.6136C905.441 52.1027 903.578 52.1508 903.192 51.424C898.744 43.0809 894.53 34.6157 889.908 25.5017L889.895 25.5072Z" fill="#7CB24A"/>
<path d="M997.957 268.94C995.193 270.21 992.866 271.279 989.959 272.61C988.343 267.357 987.07 263.234 985.797 259.111C984.319 254.345 982.916 249.555 981.338 244.824C980.55 242.469 981.387 241.567 984.022 241.474C988.467 250.225 992.961 259.094 997.97 268.935L997.957 268.94Z" fill="#7CB24A"/>
<path d="M896.151 270.943L888.256 267.766C889.194 265.837 889.957 264.182 890.799 262.57C894.222 256.046 897.62 249.502 901.184 243.056C901.685 242.158 903.094 241.766 904.085 241.151C904.335 242.19 905.031 243.354 904.766 244.228C902.063 252.928 899.198 261.573 896.151 270.943Z" fill="#7CB24A"/>
<path d="M999.555 26.6757C994.908 35.4663 990.536 43.8397 985.971 52.1032C985.576 52.8173 983.837 52.7748 981.77 53.3555C985.278 42.6833 988.37 33.2562 991.577 23.4654L999.555 26.6757Z" fill="#7CB24A"/>
</svg>
