<svg width="205" height="208" viewBox="0 0 205 208" fill="none" xmlns="http://www.w3.org/2000/svg">
<path d="M89.9905 208C89.8243 207.896 89.6997 207.708 89.5127 207.667C81.6393 205.562 77.5052 200.226 77.4844 192.056C77.4637 172.09 77.4844 152.103 77.4844 132.137C77.4844 129.031 77.4844 125.926 77.4844 122.758C75.7394 122.758 74.1398 122.883 72.5817 122.737C65.3938 122.05 60.4703 116.693 60.4495 109.482C60.3872 97.4982 60.3664 85.5143 60.4495 73.5305C60.5326 58.8164 71.543 47.2701 86.2304 46.8533C97.2823 46.5407 108.376 46.5407 119.428 46.8533C133.346 47.2493 144.378 58.5871 144.606 72.5718C144.814 85.035 144.751 97.4774 144.627 109.941C144.564 117.84 137.958 123.571 130.126 122.8C129.379 122.737 128.651 122.633 127.613 122.529C127.613 123.363 127.613 124.134 127.613 124.905C127.613 146.497 127.613 168.109 127.613 189.701C127.613 200.726 125.182 204.269 115.086 207.979C113.465 207.979 111.845 207.979 110.225 207.979C107.919 206.854 105.613 205.687 103.265 204.603C102.891 204.436 102.268 204.499 101.853 204.686C99.5051 205.749 97.1784 206.875 94.8309 207.979C93.2313 208 91.6109 208 89.9905 208ZM117.786 133.221C117.786 113.859 117.786 94.497 117.786 75.1353C117.786 74.1974 117.786 73.2387 117.932 72.3008C118.389 69.5289 121.09 67.799 123.79 68.5285C126.366 69.2163 127.55 71.0295 127.55 74.4683C127.571 85.9729 127.55 97.4982 127.571 109.003C127.571 111.566 129.067 113.088 131.331 113.088C133.596 113.067 134.884 111.67 134.904 109.107C134.925 97.2481 135.008 85.4101 134.884 73.5722C134.759 63.4849 127.883 56.7114 117.828 56.6072C107.773 56.5238 97.7185 56.5238 87.6638 56.6072C79.1464 56.6905 72.9556 61.4215 70.8574 69.4038C70.4212 71.0712 70.2965 72.8844 70.2758 74.6142C70.2342 85.9312 70.255 97.2273 70.255 108.544C70.255 110.066 70.2134 111.796 71.7923 112.421C72.9764 112.879 74.5345 112.921 75.7809 112.587C77.2351 112.192 77.5052 110.712 77.5052 109.253C77.4844 97.8734 77.4844 86.4939 77.5052 75.1353C77.5052 74.1349 77.5883 73.1136 77.796 72.1133C78.2738 69.8207 80.4136 68.195 82.6157 68.3409C84.9424 68.4868 86.8121 70.175 87.1237 72.5301C87.2483 73.4679 87.2483 74.4267 87.2483 75.3645C87.2483 113.88 87.2483 152.416 87.2483 190.931C87.2483 191.869 87.2691 192.827 87.373 193.765C87.6015 195.87 88.8479 197.204 90.7592 197.913C94.3531 199.247 97.6355 196.641 97.6355 192.411C97.6562 172.09 97.6355 151.79 97.6562 131.47C97.6562 130.47 97.7186 129.427 97.9678 128.469C98.5911 126.009 100.876 124.592 103.348 125.051C106.07 125.551 107.379 127.427 107.379 130.928C107.379 151.103 107.379 171.277 107.399 191.452C107.399 192.536 107.441 193.64 107.711 194.661C108.272 196.912 110.578 198.434 112.946 198.267C115.294 198.121 117.184 196.475 117.558 194.161C117.703 193.223 117.724 192.285 117.724 191.327C117.786 171.944 117.786 152.582 117.786 133.221Z" fill="#083D5F"/>
<path d="M13.7698 99.0613C10.8199 98.3736 8.09843 98.1235 5.73017 97.0814C2.11545 95.4766 0.162666 92.3295 0.121118 88.3488C0.0172464 77.928 -0.107399 67.4864 0.162666 57.0657C0.432732 46.4156 9.7396 37.4538 20.8954 37.0995C29.6621 36.8285 38.4496 36.8911 47.2163 37.0786C54.3835 37.2454 60.2003 40.3299 64.3759 46.2906C65.9547 48.5623 65.6016 51.1258 63.628 52.6056C61.6752 54.0853 59.1408 53.6268 57.458 51.3342C54.8405 47.7703 51.3712 45.7904 46.9878 45.7487C38.2834 45.6653 29.579 45.4986 20.8746 45.8321C13.6659 46.103 8.80475 51.3759 8.68011 58.6913C8.53469 68.1742 8.63856 77.6363 8.63856 87.1191C8.63856 88.7239 9.24101 89.7452 10.9445 89.8285C12.6895 89.9119 13.5205 88.8907 13.749 87.2859C13.8321 86.744 13.7698 86.2021 13.7698 85.6602C13.7698 77.1986 13.7698 68.7369 13.7698 60.2753C13.7698 59.4624 13.7698 58.6496 13.8737 57.8368C14.1437 55.7735 15.7849 54.2937 17.8416 54.1895C19.7736 54.0853 21.5601 55.315 22.0587 57.2741C22.308 58.2328 22.3496 59.2749 22.3496 60.2753C22.3703 91.0165 22.3703 121.737 22.3703 152.478C22.3703 153.228 22.3288 153.979 22.4119 154.708C22.6196 156.73 24.2608 158.126 26.2967 158.043C28.3118 157.959 29.579 156.646 29.6829 154.5C29.7037 153.895 29.7037 153.291 29.7037 152.666C29.7037 136.951 29.7037 121.258 29.7037 105.543C29.7037 104.939 29.6829 104.313 29.7244 103.709C29.9945 101.145 31.698 99.4365 34.0039 99.4365C36.4137 99.4365 38.0964 101.187 38.2834 103.897C38.325 104.564 38.3042 105.251 38.3042 105.918C38.3042 121.633 38.3042 137.326 38.3042 153.041C38.3042 154.708 38.4288 156.271 40.0077 157.334C42.4175 159.002 45.4298 157.73 45.8037 154.812C45.9076 154.083 45.8452 153.333 45.8452 152.582C45.8452 121.779 45.8452 90.9748 45.8452 60.1711C45.8452 59.2332 45.8452 58.2536 46.053 57.3574C46.51 55.4192 48.2966 54.1062 50.2078 54.1479C52.2229 54.1895 53.9472 55.6484 54.3004 57.6909C54.4042 58.2953 54.4042 58.8997 54.4042 59.5041C54.4042 90.9748 54.425 122.466 54.3835 153.937C54.3627 163.753 44.8273 169.797 36.5176 165.233C34.6895 164.233 33.5469 164.254 31.7188 165.254C23.5337 169.756 13.8321 163.733 13.7906 154.145C13.7075 136.409 13.7698 118.673 13.7698 100.937C13.7698 100.228 13.7698 99.4156 13.7698 99.0613Z" fill="#083D5F"/>
<path d="M191.327 98.4361C191.327 99.3114 191.327 100.124 191.327 100.916C191.327 118.527 191.348 136.118 191.327 153.729C191.327 160.085 188.211 164.608 182.727 166.254C179.112 167.338 175.643 166.901 172.464 164.796C171.509 164.17 170.844 163.983 169.805 164.691C165.754 167.401 161.412 167.588 157.154 165.296C152.895 163.003 150.693 159.273 150.693 154.375C150.693 122.696 150.672 91.0165 150.693 59.3166C150.693 56.1486 152.355 54.2104 154.952 54.2104C157.59 54.2104 159.252 56.2112 159.252 59.5041C159.252 90.5163 159.252 121.508 159.252 152.52C159.252 153.27 159.21 154.02 159.293 154.75C159.501 156.709 161.018 158.064 162.97 158.085C164.986 158.105 166.419 156.876 166.689 154.833C166.793 154.104 166.772 153.354 166.772 152.603C166.772 136.972 166.772 121.32 166.793 105.689C166.793 104.751 166.814 103.792 166.98 102.854C167.312 100.979 168.891 99.6449 170.782 99.499C172.776 99.3531 174.563 100.541 175.082 102.459C175.331 103.417 175.414 104.459 175.414 105.46C175.435 121.508 175.435 137.556 175.435 153.604C175.435 156.417 176.536 157.876 178.759 158.064C180.878 158.251 182.457 157.022 182.706 154.896C182.789 154.166 182.748 153.416 182.748 152.666C182.748 121.862 182.748 91.0582 182.748 60.2544C182.748 59.3166 182.748 58.337 182.955 57.4408C183.433 55.3983 185.261 54.0853 187.256 54.2104C189.312 54.3354 190.912 55.8152 191.203 57.8993C191.307 58.6288 191.286 59.3791 191.286 60.1294C191.286 68.7994 191.265 77.4695 191.327 86.1188C191.327 87.14 191.556 88.4113 192.179 89.0782C192.719 89.641 194.153 89.8702 194.9 89.5576C195.607 89.2658 196.375 88.0779 196.375 87.265C196.479 77.6571 196.583 68.0283 196.375 58.4204C196.23 51.23 191.307 46.0405 184.16 45.8321C175.061 45.5403 165.941 45.7487 156.842 45.8738C153.581 45.9155 150.942 47.5828 148.844 50.0629C148.408 50.584 148.013 51.1258 147.556 51.626C145.769 53.6685 143.36 54.0228 141.448 52.5431C139.537 51.0633 139.184 48.6248 140.7 46.3948C144.087 41.3928 148.74 38.2041 154.744 37.3704C157.465 36.9953 160.249 37.0161 163.012 36.9953C169.556 36.9536 176.1 36.9536 182.644 36.9953C195.752 37.0578 204.934 46.2281 204.976 59.3582C205.018 68.5702 204.997 77.7821 204.976 86.9733C204.955 94.3928 199.845 98.9988 192.428 98.3527C192.158 98.3736 191.826 98.4153 191.327 98.4361Z" fill="#083D5F"/>
<path d="M122.772 21.6142C122.731 32.5352 113.465 41.768 102.601 41.7471C91.694 41.7263 82.5326 32.4935 82.5326 21.5309C82.5326 10.464 91.8394 1.16869 102.787 1.29374C113.715 1.43963 122.814 10.6724 122.772 21.6142ZM92.3172 21.4683C92.2549 27.1581 96.7837 31.8057 102.497 31.9308C108.126 32.0558 113.008 27.2206 113.008 21.5309C113.008 15.9036 108.313 11.1935 102.684 11.1726C97.033 11.1309 92.3796 15.7786 92.3172 21.4683Z" fill="#083D5F"/>
<path d="M187.609 16.6956C187.567 25.7408 180.088 33.223 171.114 33.2646C162.098 33.2855 154.411 25.5741 154.515 16.5706C154.619 7.48367 162.036 0.0640867 171.052 0.0224036C180.088 -0.040121 187.65 7.56703 187.609 16.6956ZM163.178 16.5706C163.137 21.0098 166.648 24.6154 171.052 24.6362C175.373 24.6571 179.05 20.9681 179.029 16.6331C179.008 12.3606 175.497 8.77585 171.197 8.67164C166.855 8.56743 163.22 12.1313 163.178 16.5706Z" fill="#083D5F"/>
<path d="M17.5092 16.383C17.7169 7.27525 25.258 -0.123487 34.1909 0.00156214C43.29 0.126611 50.9349 7.96302 50.6233 16.8624C50.3117 26.0326 42.7707 33.4314 33.9208 33.2438C24.7594 33.0562 17.3014 25.4074 17.5092 16.383ZM41.9812 16.6956C42.002 12.2772 38.4288 8.67164 34.0662 8.67164C29.7244 8.67164 26.0682 12.3814 26.1097 16.6956C26.1513 20.9681 29.6829 24.532 33.9624 24.6154C38.3042 24.7196 41.9397 21.114 41.9812 16.6956Z" fill="#083D5F"/>
</svg>
