<svg width="200" height="208" viewBox="0 0 200 208" fill="none" xmlns="http://www.w3.org/2000/svg">
<path d="M29.7495 207.93C29.0634 207.701 28.3772 207.452 27.6703 207.223C21.6611 205.31 17.6272 200.257 17.5233 193.978C17.3777 184.309 17.4609 174.619 17.4609 164.951C17.4609 151.144 17.4609 137.338 17.4609 123.531C17.4609 122.72 17.4609 121.93 17.4609 120.953C16.7331 121.036 16.2133 121.057 15.7143 121.161C7.58424 122.824 0.140353 117.023 0.0779737 108.747C-0.0259912 96.5002 -0.0259912 84.2531 0.0779737 72.0061C0.202732 57.1807 11.0983 45.9941 26.0692 45.6406C36.8192 45.3703 47.5899 45.3911 58.3399 45.6406C73.1653 45.9733 84.04 57.0143 84.2479 71.8605C84.4143 84.1076 84.3519 96.3546 84.2687 108.602C84.2064 117.335 77.1159 122.886 68.5077 121.14C68.071 121.057 67.6136 121.057 66.9066 120.994C66.9066 121.992 66.9066 122.845 66.9066 123.718C66.9066 146.59 66.9066 169.463 66.9066 192.335C66.9066 199.529 63.6629 204.665 57.7577 206.932C56.8428 207.285 55.8863 207.618 54.9714 207.951C53.3496 207.951 51.7277 207.951 50.1059 207.951C47.4444 206.745 44.8037 205.559 42.3293 204.437C39.7302 205.559 36.9855 206.765 34.2616 207.951C32.7437 207.93 31.2466 207.93 29.7495 207.93ZM58.2567 133.013C58.2567 113.259 58.2567 93.4852 58.2567 73.7319C58.2567 73.1289 58.2151 72.5051 58.2775 71.9021C58.5062 69.1782 60.2113 67.4316 62.5609 67.39C64.9521 67.3692 66.6571 69.0743 66.9274 71.7981C66.9898 72.4635 66.969 73.1497 66.969 73.8359C66.969 84.8769 66.969 95.8972 66.969 106.938C66.969 107.812 66.969 108.706 67.1561 109.558C67.6136 111.596 69.8592 113.072 71.9385 112.802C74.2257 112.511 75.6397 111.034 75.6397 108.747C75.6604 96.4378 75.7852 84.1076 75.5981 71.7981C75.4525 61.8591 68.3205 54.6231 58.4023 54.3944C47.6523 54.1657 36.8815 54.1657 26.1316 54.3944C15.8598 54.6024 8.72785 62.0878 8.66547 72.4011C8.60309 84.3155 8.64468 96.2299 8.64468 108.123C8.64468 110.931 10.2665 112.74 12.8241 112.843C15.1529 112.947 17.0866 111.159 17.3777 108.581C17.4401 107.978 17.4193 107.375 17.4193 106.751C17.4193 95.7101 17.4193 84.6898 17.4193 73.6487C17.4193 72.7754 17.4193 71.8813 17.5441 71.0288C17.8352 68.9703 19.5402 67.494 21.5571 67.4316C23.4909 67.3692 25.2583 68.6168 25.7365 70.5714C25.986 71.5486 26.0276 72.5675 26.0276 73.5863C26.0484 112.906 26.0484 152.225 26.0484 191.545C26.0484 192.356 26.0276 193.167 26.09 193.978C26.4019 197.305 29.5416 199.696 32.8269 199.155C36.1122 198.614 37.8172 196.41 37.8172 192.626C37.8172 171.979 37.8172 151.352 37.838 130.705C37.838 129.769 37.8588 128.792 38.0875 127.898C38.5658 125.985 40.4579 124.695 42.3293 124.799C44.2838 124.924 45.9473 126.338 46.28 128.272C46.4255 129.124 46.4047 130.018 46.4047 130.892C46.4047 151.186 46.4047 171.5 46.4255 191.794C46.4255 192.668 46.4255 193.562 46.5919 194.414C47.2988 198.136 51.1871 200.174 54.6803 198.718C57.4666 197.554 58.2359 195.329 58.2151 192.501C58.2359 172.686 58.2567 152.849 58.2567 133.013Z" fill="#083D5F"/>
<path d="M102.088 107.853C98.9278 108.186 96.2455 107.687 93.8959 106.003C91.5047 104.298 89.966 101.927 89.966 98.9954C89.9452 89.1187 89.7997 79.242 90.2987 69.3862C90.7146 61.3393 98.5327 53.6459 106.6 53.3132C115.853 52.9181 125.127 52.9181 134.38 53.3132C142.739 53.6667 150.245 61.4848 150.64 70.3218C151.077 79.9698 150.91 89.6593 150.744 99.328C150.661 104.09 145.961 107.832 140.618 107.978C140.139 107.999 139.682 107.978 138.809 107.978C138.809 108.83 138.809 109.683 138.809 110.515C138.809 125.673 138.788 140.81 138.809 155.968C138.809 160.023 137.79 163.558 134.338 166.094C130.616 168.86 125.813 169.109 121.758 166.801C121.176 166.469 120.137 166.24 119.7 166.552C112.506 171.459 101.964 166.864 102.047 156.322C102.151 140.976 102.068 125.61 102.068 110.265C102.088 109.537 102.088 108.81 102.088 107.853ZM110.135 114.902C110.135 128.584 110.135 142.245 110.135 155.927C110.135 156.613 110.052 157.299 110.198 157.943C110.551 159.628 111.653 160.522 113.379 160.439C115.001 160.376 116.02 159.482 116.269 157.86C116.373 157.195 116.332 156.509 116.332 155.843C116.332 141.974 116.331 128.085 116.352 114.216C116.352 113.343 116.394 112.448 116.581 111.596C117.018 109.558 118.702 108.311 120.677 108.435C122.569 108.56 124.066 109.953 124.337 111.908C124.441 112.636 124.42 113.384 124.42 114.133C124.42 128.002 124.42 141.891 124.42 155.76C124.42 156.446 124.358 157.133 124.482 157.777C124.836 159.461 125.959 160.397 127.643 160.355C129.202 160.314 130.325 159.441 130.595 157.819C130.72 157.029 130.699 156.197 130.699 155.386C130.699 128.729 130.699 102.052 130.699 75.3953C130.699 74.8547 130.699 74.3141 130.699 73.7735C130.72 70.1763 132.072 68.2841 134.671 68.2633C137.27 68.2217 138.726 70.1555 138.746 73.6903C138.746 75.0418 138.746 76.3934 138.746 77.7449C138.746 84.3779 138.767 91.0108 138.746 97.6438C138.746 99.0161 139.245 99.931 140.701 99.8895C141.928 99.8479 142.718 99.2865 142.718 97.8933C142.676 88.9523 142.801 80.0322 142.593 71.0912C142.468 66.0177 138.185 61.5264 133.111 61.3809C124.669 61.1314 116.207 61.1314 107.744 61.3809C102.629 61.5472 98.1584 66.1217 98.0337 71.1744C97.8257 80.0945 97.9297 89.0355 97.9089 97.9765C97.9089 99.3696 98.7199 99.931 99.9674 99.931C101.215 99.9102 102.005 99.3073 102.026 97.9349C102.026 97.4567 102.026 96.9784 102.026 96.521C102.026 88.8068 102.026 81.0926 102.026 73.3784C102.026 70.2179 103.565 68.3257 106.039 68.3049C108.513 68.2841 110.073 70.2179 110.114 73.3368C110.114 73.8151 110.114 74.2933 110.114 74.7507C110.135 88.0998 110.135 101.491 110.135 114.902Z" fill="#083D5F"/>
<path d="M191.415 96.4378C191.415 102.78 191.415 108.934 191.415 115.068C191.415 119.934 191.436 124.799 191.415 129.686C191.373 136.88 185.884 140.477 179.313 137.691C178.794 137.462 177.962 137.4 177.504 137.67C172.514 140.54 164.987 137.566 165.091 129.457C165.216 119.31 165.112 109.163 165.112 99.0162C165.112 98.2052 165.112 97.4151 165.112 96.5002C164.592 96.417 164.218 96.3546 163.843 96.3131C159.685 96.022 156.753 93.3605 156.67 89.2227C156.545 82.6105 156.524 75.9567 156.878 69.3654C157.231 62.878 162.721 57.5342 169.208 57.2846C175.342 57.0351 181.517 57.0559 187.651 57.3678C194.264 57.7213 199.691 63.4394 199.878 70.0723C200.065 76.4973 200.002 82.9224 199.919 89.3474C199.878 93.0486 196.987 95.9388 193.266 96.2923C192.746 96.3546 192.205 96.3754 191.415 96.4378ZM171.495 100.596C171.495 106.751 171.495 112.906 171.495 119.081C171.495 122.803 171.495 126.525 171.495 130.247C171.495 131.536 172.161 132.534 173.408 132.285C174.094 132.16 174.656 131.037 175.113 130.289C175.321 129.935 175.155 129.353 175.155 128.896C175.155 119.497 175.155 110.078 175.155 100.68C175.155 97.5398 176.257 95.9388 178.378 96.0012C180.478 96.0428 181.517 97.6022 181.517 100.784C181.517 110.12 181.517 119.456 181.517 128.792C181.517 129.395 181.31 130.143 181.58 130.58C181.996 131.287 182.682 132.139 183.368 132.264C183.825 132.347 184.699 131.37 185.011 130.684C185.302 130.081 185.135 129.228 185.135 128.48C185.135 109.995 185.135 91.5307 185.135 73.0457C185.135 72.1724 185.115 71.2783 185.26 70.4258C185.676 68.1386 188.4 67.0365 190.084 68.6168C190.854 69.3446 191.332 70.7169 191.353 71.7981C191.477 77.2043 191.373 82.6313 191.457 88.0374C191.457 88.682 192.101 89.3266 192.455 89.9504C192.891 89.3058 193.681 88.682 193.702 88.0374C193.806 82.4233 193.827 76.8092 193.723 71.1951C193.64 66.7039 190.812 63.7928 186.383 63.6265C181.185 63.4394 175.966 63.377 170.747 63.4394C166.11 63.5017 163.033 66.6623 162.97 71.3199C162.908 76.8716 162.908 82.4234 163.012 87.9751C163.033 88.6405 163.739 89.285 164.114 89.9504C164.467 89.2642 165.091 88.5781 165.112 87.8711C165.195 82.7976 165.153 77.7241 165.174 72.6506C165.174 71.8397 165.195 71.0288 165.361 70.2387C165.673 68.7208 166.692 67.9099 168.21 67.8475C169.853 67.7643 170.913 68.6376 171.35 70.1763C171.537 70.8832 171.495 71.6526 171.495 72.4011C171.516 81.7788 171.495 91.1772 171.495 100.596Z" fill="#083D5F"/>
<path d="M42.2045 39.8185C31.3298 39.8185 22.3473 30.7944 22.3473 19.8989C22.3473 9.02415 31.3922 0 42.2461 0C53.0585 0 62.1866 9.12812 62.1658 19.9405C62.145 30.7528 53.0585 39.8185 42.2045 39.8185ZM53.4327 19.9197C53.412 13.7234 48.3385 8.67067 42.1837 8.69146C36.029 8.71226 30.9555 13.8273 30.9763 19.982C30.9971 26.1368 36.1122 31.2518 42.2461 31.231C48.4009 31.1895 53.4535 26.0952 53.4327 19.9197Z" fill="#083D5F"/>
<path d="M105.561 33.6638C105.54 25.513 112.173 18.7969 120.345 18.6929C128.537 18.5889 135.357 25.409 135.357 33.643C135.357 41.7939 128.766 48.4476 120.552 48.614C112.464 48.7595 105.582 41.8978 105.561 33.6638ZM120.469 26.7814C116.706 26.7814 113.628 29.8171 113.608 33.5807C113.566 37.3858 116.789 40.6087 120.573 40.5255C124.316 40.4631 127.31 37.365 127.31 33.5807C127.269 29.7755 124.274 26.7814 120.469 26.7814Z" fill="#083D5F"/>
<path d="M189.107 42.4593C189.107 48.3645 184.325 53.1884 178.44 53.2092C172.473 53.23 167.545 48.2813 167.628 42.3761C167.711 36.4917 172.597 31.6677 178.44 31.6885C184.283 31.7093 189.107 36.554 189.107 42.4593ZM178.419 38.1343C176.028 38.1135 173.99 40.1096 173.97 42.4593C173.949 44.7881 175.987 46.8258 178.357 46.8466C180.727 46.8674 182.786 44.8712 182.807 42.5216C182.827 40.172 180.79 38.1343 178.419 38.1343Z" fill="#083D5F"/>
</svg>
